<svg fill="none">
  <defs>

    <svg xmlns="http://www.w3.org/2000/svg" width="100%" height="100%" viewBox="0 0 20 20" fill="none" id="leftArrowRound">
      <path fill-rule="evenodd" clip-rule="evenodd" d="M0 10C0 4.49 4.48 0 10 0C15.51 0 20 4.49 20 10C20 15.52 15.51 20 10 20L9.72023 19.9962C4.32942 19.8478 0 15.4264 0 10ZM11.98 6C12.27 6.3 12.27 6.77 11.97 7.06L9.02 10L11.97 12.94C12.27 13.23 12.27 13.71 11.98 14C11.68 14.3 11.21 14.3 10.92 14L7.43 10.53C7.29 10.39 7.21 10.2 7.21 10C7.21 9.8 7.29 9.61 7.43 9.47L10.92 6C11.06 5.85 11.25 5.78 11.44 5.78C11.64 5.78 11.83 5.85 11.98 6Z" fill="currentColor"/>
    </svg>

    <svg xmlns="http://www.w3.org/2000/svg" width="100%" height="100%" viewBox="0 0 20 20" fill="none" id="rightArrowRound">
      <path fill-rule="evenodd" clip-rule="evenodd" d="M20 10C20 15.52 15.51 20 10 20L9.72023 19.9962C4.32942 19.8478 0 15.4264 0 10C0 4.49 4.48 0 10 0C15.51 0 20 4.49 20 10ZM8.02 6C7.73 6.3 7.73 6.77 8.03 7.06L10.98 10L8.03 12.94C7.73 13.23 7.73 13.71 8.02 14C8.32 14.3 8.79 14.3 9.08 14L12.57 10.53C12.71 10.39 12.79 10.2 12.79 10C12.79 9.8 12.71 9.61 12.57 9.47L9.08 6C8.94 5.85 8.75 5.78 8.56 5.78C8.36 5.78 8.17 5.85 8.02 6Z" fill="currentColor"/>
    </svg>

    <svg xmlns="http://www.w3.org/2000/svg" width="100%" height="100%" viewBox="0 0 24 24" id="rightArrow">
        <line x1="0" y1="12" x2="12" y2="12" stroke="currentColor" stroke-width="1"/>
        <path fill="currentColor" d="M10.41 16.59L15.83 12 10.41 7.41 11.83 6l6 6-6 6z"/>
    </svg>

    </defs>
</svg>
